<svg width="197" height="72" viewBox="0 0 197 72" fill="none" xmlns="http://www.w3.org/2000/svg">
<path d="M0 50C0 22.3858 22.3858 0 50 0H161C180.882 0 197 16.1178 197 36C197 55.8823 180.882 72 161 72H0V50Z" fill="url(#paint0_linear_108_72)"/>
<path d="M67.6973 53H62.002V42.7344H51.5605V53H45.8828V27.793H51.5605V37.8477H62.002V27.793H67.6973V53ZM89.1074 45.582H77.3652C77.5527 48.1953 79.1992 49.502 82.3047 49.502C84.2852 49.502 86.0254 49.0332 87.5254 48.0957V52.1035C85.8613 52.9941 83.6992 53.4395 81.0391 53.4395C78.1328 53.4395 75.877 52.6367 74.2715 51.0312C72.666 49.4141 71.8633 47.1641 71.8633 44.2812C71.8633 41.293 72.7305 38.9258 74.4648 37.1797C76.1992 35.4336 78.332 34.5605 80.8633 34.5605C83.4883 34.5605 85.5156 35.3398 86.9453 36.8984C88.3867 38.457 89.1074 40.5723 89.1074 43.2441V45.582ZM83.957 42.1719C83.957 39.5938 82.9141 38.3047 80.8281 38.3047C79.9375 38.3047 79.1641 38.6738 78.5078 39.4121C77.8633 40.1504 77.4707 41.0703 77.3301 42.1719H83.957ZM97.9668 53H92.4121V26.3516H97.9668V53ZM108.197 53H102.643V26.3516H108.197V53ZM121.451 53.4395C118.451 53.4395 116.09 52.6016 114.367 50.9258C112.656 49.2383 111.801 46.9531 111.801 44.0703C111.801 41.0938 112.691 38.7676 114.473 37.0918C116.254 35.4043 118.662 34.5605 121.697 34.5605C124.686 34.5605 127.029 35.4043 128.729 37.0918C130.428 38.7676 131.277 40.9883 131.277 43.7539C131.277 46.7422 130.398 49.1035 128.641 50.8379C126.895 52.5723 124.498 53.4395 121.451 53.4395ZM121.592 38.8145C120.279 38.8145 119.26 39.2656 118.533 40.168C117.807 41.0703 117.443 42.3477 117.443 44C117.443 47.457 118.838 49.1855 121.627 49.1855C124.287 49.1855 125.617 47.4102 125.617 43.8594C125.617 40.4961 124.275 38.8145 121.592 38.8145ZM141.332 27.793L140.646 45.1602H136.146L135.496 27.793H141.332ZM138.449 53.4043C137.512 53.4043 136.738 53.123 136.129 52.5605C135.52 51.9863 135.215 51.2949 135.215 50.4863C135.215 49.6426 135.52 48.9512 136.129 48.4121C136.75 47.873 137.523 47.6035 138.449 47.6035C139.387 47.6035 140.154 47.8789 140.752 48.4297C141.35 48.9688 141.648 49.6543 141.648 50.4863C141.648 51.3301 141.35 52.0273 140.752 52.5781C140.166 53.1289 139.398 53.4043 138.449 53.4043Z" fill="white"/>
<defs>
<linearGradient id="paint0_linear_108_72" x1="0" y1="36" x2="197" y2="36" gradientUnits="userSpaceOnUse">
<stop stop-color="#32F6F6"/>
<stop offset="1" stop-color="#A6A79F"/>
</linearGradient>
</defs>
</svg>
